<svg fill="none" height="48" viewBox="4 4 40 40" width="48" xmlns="http://www.w3.org/2000/svg"><g clip-rule="evenodd" fill-rule="evenodd"><path d="m24 7.87915c8.8 0 16 7.25445 16 16.12095s-7.2 16.1209-16 16.1209-16-7.2544-16-16.1209 7.2-16.12095 16-16.12095" fill="#430606"/><g fill="#ff4c00"><path d="m44 24c0-4.0302-1.2-8.0605-3.6-11.4861v-4.83632c0-.20151-.2-.20151-.2-.20151h-4.8c-6.8-4.63476-15.8-4.63476-22.6 0h-5.2v5.03783c-4.8 6.8513-4.8 16.1209 0 22.9722v4.8363c0 .2015.2.2015.2.2015h4.8c6.8 4.6348 15.8 4.6348 22.8 0h4.8c.2 0 .2-.2015.2-.403v-4.8363c2.4-3.2241 3.6-7.2544 3.6-11.2846zm-37.39996 0c0-9.6726 7.79996-17.5315 17.39996-17.5315s17.4 7.8589 17.4 17.5315c0 9.6725-7.8 17.5315-17.4 17.5315s-17.39996-7.859-17.39996-17.5315z"/><path d="m12.4 14.529h6.6c-.2.806-.2 1.6121-.2 2.4181.2 3.0227 2.2 11.0831 2.2 11.0831l3-12.6952 3.2 12.2922s2-10.8816 2-11.6876c0-.6046-.4-1.0076-.8-1.4106h7c-1 .806-1.6 2.0151-2 3.2242-.6 2.4181-2.8 14.5088-2.8 15.3148 0 .8061.4 1.6121.8 2.2166h-6.4c.2-.6045.2-1.209.2-1.8136 0-1.209-1-6.4483-1-6.4483s-1.4 5.4408-1.4 6.4483c0 .6046.2 1.2091.4 1.8136h-6.6s1.2-1.0075 1.2-1.8136c-.2-2.4181-3.6-15.3148-3.8-16.3224 0-1.0075-.6-2.0151-1.6-2.6196z"/></g></g></svg>